<svg width="38" height="34" viewBox="0 0 38 34" fill="none" xmlns="http://www.w3.org/2000/svg">
<path d="M36.86 4.33334H34.0733V2.94C34.0733 2.77111 34.01 2.62334 33.8833 2.49667C33.7566 2.37 33.6089 2.30667 33.44 2.30667C30.6533 2.30667 28.3733 2.43334 26.6 2.68667C25.1644 2.85556 23.5177 3.19334 21.66 3.7V3.57334C21.66 2.81334 21.4066 2.18 20.9 1.67334C20.3933 1.16667 19.76 0.913338 19 0.913338C18.24 0.913338 17.6066 1.16667 17.1 1.67334C16.5933 2.18 16.34 2.81334 16.34 3.57334V3.7C14.4822 3.19334 12.8355 2.85556 11.4 2.68667C9.62663 2.43334 7.34663 2.30667 4.55997 2.30667C4.39108 2.30667 4.2433 2.37 4.11663 2.49667C3.98997 2.62334 3.92663 2.77111 3.92663 2.94V4.33334H1.13997C0.971079 4.33334 0.844412 4.39667 0.759967 4.52334C0.675523 4.65 0.633301 4.79778 0.633301 4.96667V30.5533C0.633301 30.7222 0.675523 30.87 0.759967 30.9967C0.844412 31.1233 0.971079 31.1867 1.13997 31.1867H15.8333C15.8333 31.7778 16.0233 32.2422 16.4033 32.58C16.7833 32.9178 17.2266 33.0867 17.7333 33.0867H20.2666C20.8577 33.0867 21.3222 32.9178 21.66 32.58C21.9977 32.2422 22.1666 31.7778 22.1666 31.1867H36.86C37.0289 31.1867 37.1555 31.1233 37.24 30.9967C37.3244 30.87 37.3666 30.7222 37.3666 30.5533V4.96667C37.3666 4.79778 37.3244 4.65 37.24 4.52334C37.1555 4.39667 37.0289 4.33334 36.86 4.33334ZM32.9333 3.44667V27.1333C27.1911 27.1333 22.7577 27.8933 19.6333 29.4133V21.56H31.16C31.4133 21.56 31.5822 21.4967 31.6666 21.37C31.7511 21.2433 31.7933 21.0956 31.7933 20.9267C31.7089 19.9978 31.4133 19.1956 30.9066 18.52C30.4 17.8444 29.7666 17.3378 29.0066 17C29.5133 16.4933 29.7666 15.8811 29.7666 15.1633C29.7666 14.4456 29.5133 13.8122 29.0066 13.2633C28.5 12.7144 27.8666 12.44 27.1066 12.44L26.6 12.5667C26.0933 11.9756 25.5022 11.5533 24.8266 11.3C25.4177 10.7089 25.7133 10.0544 25.7133 9.33667C25.7133 8.61889 25.4389 7.98556 24.89 7.43667C24.3411 6.88778 23.6866 6.61334 22.9266 6.61334L22.5466 6.74C22.1244 6.14889 21.5755 5.72667 20.9 5.47334L21.28 4.96667C23.3066 4.46 24.9533 4.08 26.22 3.82667C27.9933 3.65778 30.2311 3.53111 32.9333 3.44667ZM14.6933 19.0267C14.1866 18.0978 13.4689 17.4222 12.54 17C12.8777 16.6622 13.0889 16.24 13.1733 15.7333H16.2133C16.2977 16.24 16.5511 16.6622 16.9733 17C15.96 17.4222 15.2 18.0978 14.6933 19.0267ZM9.11997 15.1C9.11997 14.6778 9.26775 14.34 9.5633 14.0867C9.85886 13.8333 10.2177 13.7067 10.64 13.7067C11.0622 13.7067 11.4211 13.8333 11.7166 14.0867C12.0122 14.34 12.16 14.6778 12.16 15.1C12.16 15.5222 12.0122 15.8811 11.7166 16.1767C11.4211 16.4722 11.0622 16.62 10.64 16.62C10.2177 16.62 9.85886 16.4722 9.5633 16.1767C9.26775 15.8811 9.11997 15.5222 9.11997 15.1ZM13.1733 9.4C13.1733 8.97778 13.3211 8.61889 13.6166 8.32334C13.9122 8.02778 14.2711 7.88 14.6933 7.88C15.1155 7.88 15.4744 8.02778 15.77 8.32334C16.0655 8.61889 16.2133 8.97778 16.2133 9.4C16.2133 9.82223 16.0655 10.16 15.77 10.4133C15.4744 10.6667 15.1155 10.7933 14.6933 10.7933C14.2711 10.7933 13.9122 10.6667 13.6166 10.4133C13.3211 10.16 13.1733 9.82223 13.1733 9.4ZM19 6.23334C19.9289 6.23334 20.7311 6.52889 21.4066 7.12C20.8155 7.54222 20.4777 8.09111 20.3933 8.76667H17.3533C17.1844 8.17556 16.8889 7.66889 16.4666 7.24667C17.1422 6.57112 17.9866 6.23334 19 6.23334ZM22.9266 19.0267C22.42 18.0978 21.7022 17.4222 20.7733 17C21.1111 16.6622 21.3644 16.24 21.5333 15.7333H24.4466C24.6155 16.24 24.8689 16.6622 25.2066 17C24.1933 17.4222 23.4333 18.0978 22.9266 19.0267ZM18.8733 16.62C18.4511 16.62 18.0922 16.4722 17.7966 16.1767C17.5011 15.8811 17.3533 15.5222 17.3533 15.1C17.3533 14.6778 17.5011 14.34 17.7966 14.0867C18.0922 13.8333 18.4511 13.7067 18.8733 13.7067C19.2955 13.7067 19.6544 13.8333 19.95 14.0867C20.2455 14.34 20.3933 14.6778 20.3933 15.1C20.3933 15.5222 20.2455 15.8811 19.95 16.1767C19.6544 16.4722 19.2955 16.62 18.8733 16.62ZM16.5933 11.3C17.0155 10.8778 17.2689 10.4133 17.3533 9.90667H18.3666V12.44V12.5667C17.86 11.9756 17.2689 11.5533 16.5933 11.3ZM20.3933 9.90667C20.4777 10.4133 20.6889 10.8778 21.0266 11.3C20.52 11.5533 20.0555 11.8911 19.6333 12.3133V9.90667H20.3933ZM27.1066 17.8867C27.8666 17.8867 28.5633 18.1189 29.1966 18.5833C29.83 19.0478 30.2733 19.6178 30.5266 20.2933H23.6866C23.94 19.6178 24.3833 19.0478 25.0166 18.5833C25.65 18.1189 26.3466 17.8867 27.1066 17.8867ZM27.1066 16.62C26.6844 16.62 26.3255 16.4722 26.03 16.1767C25.7344 15.8811 25.5866 15.5222 25.5866 15.1C25.5866 14.6778 25.7344 14.34 26.03 14.0867C26.3255 13.8333 26.6844 13.7067 27.1066 13.7067C27.5289 13.7067 27.8877 13.8333 28.1833 14.0867C28.4789 14.34 28.6266 14.6778 28.6266 15.1C28.6266 15.5222 28.4789 15.8811 28.1833 16.1767C27.8877 16.4722 27.5289 16.62 27.1066 16.62ZM24.4466 14.5933H21.5333C21.3644 13.9178 21.0266 13.4111 20.52 13.0733C21.1955 12.3978 22.0189 12.06 22.99 12.06C23.9611 12.06 24.7844 12.3978 25.46 13.0733C24.9533 13.4111 24.6155 13.9178 24.4466 14.5933ZM22.9266 10.7933C22.5044 10.7933 22.1455 10.6667 21.85 10.4133C21.5544 10.16 21.4066 9.82223 21.4066 9.4C21.4066 8.97778 21.5544 8.61889 21.85 8.32334C22.1455 8.02778 22.5044 7.88 22.9266 7.88C23.3489 7.88 23.7077 8.02778 24.0033 8.32334C24.2989 8.61889 24.4466 8.97778 24.4466 9.4C24.4466 9.82223 24.2989 10.16 24.0033 10.4133C23.7077 10.6667 23.3489 10.7933 22.9266 10.7933ZM17.2266 13.0733C16.72 13.4111 16.3822 13.9178 16.2133 14.5933H13.1733C13.0889 13.9178 12.7933 13.4111 12.2866 13.0733C12.9622 12.3978 13.7855 12.06 14.7566 12.06C15.7277 12.06 16.5511 12.3978 17.2266 13.0733ZM10.64 17.8867C11.4 17.8867 12.0966 18.1189 12.73 18.5833C13.3633 19.0478 13.8066 19.6178 14.06 20.2933H7.21997C7.4733 19.6178 7.89552 19.0478 8.48663 18.5833C9.07775 18.1189 9.79552 17.8867 10.64 17.8867ZM18.8733 17.8867C19.6333 17.8867 20.33 18.1189 20.9633 18.5833C21.5966 19.0478 22.04 19.6178 22.2933 20.2933H15.4533C15.7066 19.6178 16.1289 19.0478 16.72 18.5833C17.3111 18.1189 18.0289 17.8867 18.8733 17.8867ZM19 2.05334C19.4222 2.05334 19.7811 2.20111 20.0766 2.49667C20.3722 2.79223 20.52 3.15112 20.52 3.57334C20.52 3.99556 20.3722 4.35445 20.0766 4.65C19.7811 4.94556 19.4222 5.09334 19 5.09334C18.5777 5.09334 18.2189 4.94556 17.9233 4.65C17.6277 4.35445 17.48 3.99556 17.48 3.57334C17.48 3.15112 17.6277 2.79223 17.9233 2.49667C18.2189 2.20111 18.5777 2.05334 19 2.05334ZM5.06663 3.44667C7.76886 3.53111 10.0066 3.65778 11.78 3.82667C13.0466 4.08 14.6933 4.46 16.72 4.96667L17.1 5.47334C16.4244 5.72667 15.8333 6.14889 15.3266 6.74C15.1577 6.65556 14.9466 6.61334 14.6933 6.61334C13.9333 6.61334 13.3 6.88778 12.7933 7.43667C12.2866 7.98556 12.0333 8.61889 12.0333 9.33667C12.0333 10.0544 12.2866 10.7089 12.7933 11.3C12.1177 11.5533 11.5689 11.9756 11.1466 12.5667L10.64 12.44C9.87997 12.44 9.22552 12.7144 8.67663 13.2633C8.12775 13.8122 7.8533 14.4456 7.8533 15.1633C7.8533 15.8811 8.14886 16.4933 8.73997 17C7.97997 17.3378 7.34663 17.8444 6.83997 18.52C6.3333 19.1956 5.99552 19.9978 5.82663 20.9267C5.82663 21.0956 5.88997 21.2433 6.01663 21.37C6.1433 21.4967 6.29108 21.56 6.45997 21.56H18.3666V29.4133C15.2422 27.8933 10.8089 27.1333 5.06663 27.1333V3.44667ZM36.2266 30.0467H21.66C21.4911 30.0467 21.3433 30.11 21.2166 30.2367C21.09 30.3633 21.0266 30.4689 21.0266 30.5533V31.1867C21.0266 31.44 20.9633 31.63 20.8366 31.7567C20.71 31.8833 20.52 31.9467 20.2666 31.9467H17.7333C17.5644 31.9467 17.3955 31.8833 17.2266 31.7567C17.0577 31.63 16.9733 31.44 16.9733 31.1867V30.5533C16.9733 30.4689 16.91 30.3633 16.7833 30.2367C16.6566 30.11 16.5511 30.0467 16.4666 30.0467H1.7733V5.6H3.92663V27.64C3.92663 27.8089 3.98997 27.9567 4.11663 28.0833C4.2433 28.21 4.39108 28.2733 4.55997 28.2733C10.8933 28.2733 15.6222 29.16 18.7466 30.9333C18.8311 31.0178 18.9155 31.06 19 31.06C19.0844 31.06 19.1689 31.0178 19.2533 30.9333C22.3777 29.16 27.1066 28.2733 33.44 28.2733C33.6089 28.2733 33.7566 28.21 33.8833 28.0833C34.01 27.9567 34.0733 27.8089 34.0733 27.64V5.6H36.2266V30.0467ZM31.0333 23.5867C31.0333 23.7556 30.97 23.9033 30.8433 24.03C30.7166 24.1567 30.5689 24.22 30.4 24.22C27.1911 24.3889 24.4889 24.8111 22.2933 25.4867H22.04C21.7866 25.4867 21.6177 25.3811 21.5333 25.17C21.4489 24.9589 21.4489 24.79 21.5333 24.6633C21.6177 24.5367 21.7444 24.4311 21.9133 24.3467C24.2777 23.6711 27.1066 23.2489 30.4 23.08C30.5689 23.08 30.6955 23.1222 30.78 23.2067C30.8644 23.2911 30.9489 23.4178 31.0333 23.5867ZM16.4666 25.1067C16.3822 25.36 16.2133 25.4867 15.96 25.4867H15.7066C13.5111 24.8111 10.8089 24.3889 7.59997 24.22C7.43108 24.22 7.2833 24.1567 7.15663 24.03C7.02997 23.9033 6.98775 23.7556 7.02997 23.5867C7.07219 23.4178 7.13552 23.2911 7.21997 23.2067C7.30441 23.1222 7.43108 23.08 7.59997 23.08C10.8933 23.2489 13.7222 23.6711 16.0866 24.3467C16.2555 24.4311 16.3822 24.5367 16.4666 24.6633C16.5511 24.79 16.5511 24.9378 16.4666 25.1067Z" fill="#0E2A46"/>
</svg>
