<svg width="38" height="38" viewBox="0 0 38 38" fill="none" xmlns="http://www.w3.org/2000/svg">
<path d="M37.24 20.52L32.0467 11.4C31.8778 11.1467 31.6878 10.9989 31.4767 10.9567C31.2656 10.9145 31.0756 10.9356 30.9067 11.02L29.0067 12.16V5.06671L25.2067 0.760036L24.9533 0.633373H10.1333C9.79557 0.633373 9.52113 0.738926 9.31001 0.950039C9.0989 1.16115 8.99335 1.39337 8.99335 1.64671V13.4267L7.09335 12.2867C6.92446 12.2023 6.73446 12.1812 6.52335 12.2234C6.31224 12.2656 6.12224 12.3712 5.95335 12.54L0.760014 21.7867C0.591125 21.9556 0.548903 22.1667 0.633348 22.42C0.717792 22.6734 0.844459 22.8423 1.01335 22.9267L5.32001 25.46C5.99557 26.0512 6.58668 26.7267 7.09335 27.4867L5.70001 30.02C5.44668 30.4423 5.34113 30.9067 5.38335 31.4134C5.42557 31.92 5.61557 32.3423 5.95335 32.68C6.29113 33.0178 6.69224 33.2289 7.15668 33.3134C7.62113 33.3978 8.10668 33.3556 8.61335 33.1867C8.78224 33.7778 9.18335 34.2212 9.81668 34.5167C10.45 34.8123 11.0622 34.7912 11.6533 34.4534C11.8222 35.0445 12.1811 35.4667 12.73 35.72C13.2789 35.9734 13.8067 36.0578 14.3133 35.9734C14.5667 35.8889 14.82 35.7623 15.0733 35.5934C15.2422 36.0156 15.5167 36.3534 15.8967 36.6067C16.2767 36.86 16.6778 36.9867 17.1 36.9867C17.9445 36.9867 18.5778 36.6067 19 35.8467L21.0267 37.1134C21.4489 37.3667 21.9133 37.4723 22.42 37.43C22.9267 37.3878 23.3911 37.1978 23.8133 36.86C24.2356 36.5223 24.5311 36.1212 24.7 35.6567C24.8689 35.1923 24.8689 34.7067 24.7 34.2V33.9467H24.9533C25.6289 33.7778 26.1356 33.3767 26.4733 32.7434C26.8111 32.11 26.8956 31.4556 26.7267 30.78L26.6 30.6534C27.36 30.4845 27.9511 30.0623 28.3733 29.3867C28.7956 28.7112 28.88 27.9934 28.6267 27.2334C29.3867 27.0645 29.9356 26.6423 30.2733 25.9667L30.5267 25.7134C30.78 25.5445 31.1178 25.27 31.54 24.89C31.9622 24.51 32.2156 24.32 32.3 24.32C32.3845 24.32 32.4689 24.2778 32.5533 24.1934L36.9867 21.66C37.1556 21.5756 37.2822 21.4278 37.3667 21.2167C37.4511 21.0056 37.4089 20.7734 37.24 20.52ZM25.46 2.66004L27.1067 4.43337H25.46V2.66004ZM10.1333 1.77337H24.1933V5.06671C24.1933 5.2356 24.2567 5.38337 24.3833 5.51004C24.51 5.63671 24.6578 5.70004 24.8267 5.70004H27.8667V12.7934L26.6 13.5534C25.3333 13.4689 23.9822 13.5534 22.5467 13.8067C20.9422 13.9756 19.6333 14.3134 18.62 14.82L17.9867 15.0734C17.6489 15.1578 17.3533 15.2845 17.1 15.4534C14.9889 14.6934 13.0889 14.44 11.4 14.6934L10.1333 14.06V1.77337ZM5.44668 24.0667L1.90001 22.04L6.84001 13.5534L10.3867 15.58L5.44668 24.0667ZM8.74002 31.2867L8.48668 31.6667C8.40224 31.92 8.21224 32.0889 7.91668 32.1734C7.62113 32.2578 7.34668 32.2156 7.09335 32.0467C6.84001 31.8778 6.67113 31.6667 6.58668 31.4134C6.50224 31.16 6.54446 30.9067 6.71335 30.6534L8.86668 26.8534C8.95113 26.6 9.14113 26.4312 9.43668 26.3467C9.73224 26.2623 10.0067 26.3045 10.26 26.4734C10.5133 26.6423 10.6822 26.8745 10.7667 27.17C10.8511 27.4656 10.8089 27.74 10.64 27.9934L8.74002 31.2867ZM11.78 32.68L11.6533 32.9334C11.4845 33.1867 11.2522 33.3556 10.9567 33.44C10.6611 33.5245 10.3867 33.5034 10.1333 33.3767C9.88001 33.25 9.71113 33.0389 9.62668 32.7434C9.54224 32.4478 9.58446 32.1734 9.75335 31.92L11.6533 28.5C11.8222 28.2467 12.0545 28.0989 12.35 28.0567C12.6456 28.0145 12.92 28.0567 13.1733 28.1834C13.4267 28.31 13.5956 28.5212 13.68 28.8167C13.7645 29.1123 13.7222 29.3867 13.5533 29.64L11.78 32.68ZM14.6933 34.3267C14.5245 34.58 14.3133 34.7489 14.06 34.8334C13.8067 34.9178 13.5322 34.8756 13.2367 34.7067C12.9411 34.5378 12.7722 34.3056 12.73 34.01C12.6878 33.7145 12.7089 33.44 12.7933 33.1867L14.5667 30.2734C14.7356 30.02 14.9678 29.8512 15.2633 29.7667C15.5589 29.6823 15.8333 29.7034 16.0867 29.83C16.34 29.9567 16.4878 30.1678 16.53 30.4634C16.5722 30.7589 16.5511 31.0334 16.4667 31.2867L15.0733 33.5667L14.6933 34.3267ZM16.5933 35.5934C16.34 35.4245 16.1711 35.2134 16.0867 34.96C16.0022 34.7067 16.0022 34.4534 16.0867 34.2L17.48 31.92C17.6489 31.6667 17.86 31.4978 18.1133 31.4134C18.3667 31.3289 18.62 31.35 18.8733 31.4767C19.1267 31.6034 19.2956 31.8145 19.38 32.11C19.4645 32.4056 19.4222 32.68 19.2533 32.9334L17.9867 35.2134C17.8178 35.4667 17.6067 35.6356 17.3533 35.72C17.1 35.8045 16.8467 35.7623 16.5933 35.5934ZM23.4333 35.5934C23.2645 35.8467 22.99 36.0367 22.61 36.1634C22.23 36.29 21.9133 36.2689 21.66 36.1L19.6333 34.8334L20.3933 33.5667C20.5622 33.1445 20.6467 32.7223 20.6467 32.3L22.9267 33.6934C23.2645 33.8623 23.4756 34.1367 23.56 34.5167C23.6445 34.8967 23.6022 35.2556 23.4333 35.5934ZM29.26 25.46C29.0911 25.7978 28.8378 26.0089 28.5 26.0934C28.1622 26.1778 27.8245 26.1356 27.4867 25.9667L22.5467 23.0534C22.2933 22.9689 22.0822 22.9689 21.9133 23.0534C21.7445 23.1378 21.66 23.3067 21.66 23.56C21.66 23.8134 21.7445 23.9823 21.9133 24.0667L26.8533 26.98C27.1911 27.1489 27.4022 27.4023 27.4867 27.74C27.5711 28.0778 27.5289 28.4156 27.36 28.7534C27.1911 29.0912 26.9167 29.3023 26.5367 29.3867C26.1567 29.4712 25.7978 29.4289 25.46 29.26L21.66 27.1067C21.4911 27.0223 21.3011 27.0223 21.09 27.1067C20.8789 27.1912 20.7733 27.36 20.7733 27.6134C20.7733 27.8667 20.9 28.0356 21.1533 28.12L24.9533 30.2734C25.2067 30.5267 25.3967 30.8223 25.5233 31.16C25.65 31.4978 25.6078 31.8356 25.3967 32.1734C25.1856 32.5112 24.9111 32.7223 24.5733 32.8067C24.2356 32.8912 23.8978 32.8489 23.56 32.68L21.0267 31.16C20.7733 31.0756 20.52 31.1178 20.2667 31.2867C20.0133 30.8645 19.6545 30.5478 19.19 30.3367C18.7256 30.1256 18.24 30.1045 17.7333 30.2734V30.1467C17.5645 29.5556 17.2056 29.1123 16.6567 28.8167C16.1078 28.5212 15.5378 28.4578 14.9467 28.6267H14.82V28.5C14.6511 27.9089 14.2922 27.4656 13.7433 27.17C13.1945 26.8745 12.6245 26.7689 12.0333 26.8534L11.9067 26.98C11.8222 26.4734 11.6111 26.0723 11.2733 25.7767C10.9356 25.4812 10.5345 25.2912 10.07 25.2067C9.60557 25.1223 9.16224 25.1856 8.74002 25.3967C8.31779 25.6078 7.98001 25.9245 7.72668 26.3467C7.3889 25.7556 6.96668 25.2489 6.46001 24.8267L11.6533 15.8334C13.0045 15.6645 14.5667 15.8756 16.34 16.4667L15.3267 20.14C15.1578 20.6467 15.1156 21.1534 15.2 21.66C15.2845 22.1667 15.4956 22.6523 15.8333 23.1167C16.1711 23.5812 16.5089 23.8134 16.8467 23.8134C17.1845 23.8134 17.5222 23.56 17.86 23.0534L17.9867 22.9267C18.4933 22.2512 18.9156 21.5334 19.2533 20.7734C19.8445 19.8445 20.2245 19.3378 20.3933 19.2534L21.1533 19.1267L28.7533 23.56C29.0911 23.7289 29.3233 24.0034 29.45 24.3834C29.5767 24.7634 29.5133 25.1223 29.26 25.46ZM30.6533 24.1934C30.4 23.4334 29.9778 22.8845 29.3867 22.5467L21.5333 17.9867C21.3645 17.9023 21.1956 17.86 21.0267 17.86L20.14 18.1134C19.8022 18.1978 19.5067 18.4089 19.2533 18.7467C19 19.0845 18.6622 19.5912 18.24 20.2667C17.9022 20.9423 17.48 21.6178 16.9733 22.2934L16.8467 22.5467C16.5933 22.1245 16.4456 21.7656 16.4033 21.47C16.3611 21.1745 16.3822 20.8578 16.4667 20.52L17.3533 17.1C17.4378 16.9312 17.5222 16.7623 17.6067 16.5934H17.7333C17.9022 16.4245 18.0711 16.2978 18.24 16.2134L19.1267 15.96C20.0556 15.4534 21.28 15.1156 22.8 14.9467C24.0667 14.7778 25.2911 14.6934 26.4733 14.6934L31.4133 23.4334L30.6533 24.1934ZM32.5533 22.9267L27.6133 14.3134L31.16 12.2867L36.1 20.9L32.5533 22.9267ZM15.58 11.6534C15.7489 11.6534 15.8756 11.59 15.96 11.4634C16.0445 11.3367 16.0867 11.1889 16.0867 11.02V7.09337C16.0867 6.92448 16.0445 6.77671 15.96 6.65004C15.8756 6.52337 15.7489 6.46004 15.58 6.46004H11.5267C11.3578 6.46004 11.2311 6.52337 11.1467 6.65004C11.0622 6.77671 11.02 6.92448 11.02 7.09337V11.02C11.02 11.1889 11.0622 11.3367 11.1467 11.4634C11.2311 11.59 11.3578 11.6534 11.5267 11.6534H15.58ZM12.16 7.60004H14.9467V10.3867H12.16V7.60004ZM14.6933 8.86671L13.8067 10.0067C13.6378 10.0912 13.4689 10.1334 13.3 10.1334C13.1311 10.1334 13.0045 10.0912 12.92 10.0067L12.4133 9.50004C12.3289 9.4156 12.2867 9.28893 12.2867 9.12004C12.2867 8.95115 12.35 8.80337 12.4767 8.67671C12.6033 8.55004 12.7511 8.48671 12.92 8.48671C13.0889 8.48671 13.2156 8.52893 13.3 8.61337V8.74004L13.8067 8.10671C13.9756 7.93782 14.1656 7.87449 14.3767 7.91671C14.5878 7.95893 14.7356 8.0856 14.82 8.29671C14.9045 8.50782 14.8622 8.69782 14.6933 8.86671ZM17.86 11.2734C17.86 11.1045 17.9233 10.9567 18.05 10.83C18.1767 10.7034 18.3245 10.64 18.4933 10.64H26.4733C26.6422 10.64 26.7689 10.7034 26.8533 10.83C26.9378 10.9567 26.98 11.1045 26.98 11.2734C26.98 11.4423 26.9378 11.59 26.8533 11.7167C26.7689 11.8434 26.6422 11.9067 26.4733 11.9067H18.4933C18.3245 11.9067 18.1767 11.8434 18.05 11.7167C17.9233 11.59 17.86 11.4423 17.86 11.2734ZM17.86 7.09337C17.86 6.92448 17.9233 6.77671 18.05 6.65004C18.1767 6.52337 18.3245 6.46004 18.4933 6.46004H22.1667C22.3356 6.46004 22.4833 6.52337 22.61 6.65004C22.7367 6.77671 22.8 6.92448 22.8 7.09337C22.8 7.26226 22.7367 7.38893 22.61 7.47337C22.4833 7.55782 22.3356 7.60004 22.1667 7.60004H18.4933C18.3245 7.60004 18.1767 7.55782 18.05 7.47337C17.9233 7.38893 17.86 7.26226 17.86 7.09337ZM17.86 9.12004C17.86 8.95115 17.9233 8.82448 18.05 8.74004C18.1767 8.6556 18.3245 8.61337 18.4933 8.61337H23.6867C23.8556 8.61337 24.0033 8.6556 24.13 8.74004C24.2567 8.82448 24.32 8.95115 24.32 9.12004C24.32 9.28893 24.2567 9.43671 24.13 9.56337C24.0033 9.69004 23.8556 9.75337 23.6867 9.75337H18.4933C18.3245 9.75337 18.1767 9.69004 18.05 9.56337C17.9233 9.43671 17.86 9.28893 17.86 9.12004Z" fill="#0E2A46"/>
</svg>
