<svg width="34" height="38" viewBox="0 0 34 38" fill="none" xmlns="http://www.w3.org/2000/svg">
<path d="M29.54 23.94C29.9623 23.4334 30.3 22.8423 30.5534 22.1667C30.8067 21.4911 30.9334 20.8156 30.9334 20.14C30.9334 19.0423 30.5534 18.1134 29.7934 17.3534C29.0334 16.5934 28.1045 16.2134 27.0067 16.2134C25.9089 16.2134 24.98 16.5934 24.22 17.3534C23.46 18.1134 23.08 19.0634 23.08 20.2034C23.08 21.3434 23.3756 22.3778 23.9667 23.3067L24.3467 23.94C23.4178 23.94 22.5734 24.2356 21.8134 24.8267C21.4756 24.7423 21.1378 24.7 20.8 24.7H20.1667C20.5889 24.3623 20.9267 23.94 21.18 23.4334C22.0245 22.0823 22.4467 20.52 22.4467 18.7467C22.4467 17.8178 22.2145 16.9311 21.75 16.0867C21.2856 15.2423 20.6311 14.5667 19.7867 14.06C18.9423 13.5534 18.0134 13.3 17 13.3C15.9867 13.3 15.0578 13.5534 14.2134 14.06C13.3689 14.5667 12.7145 15.2423 12.25 16.0867C11.7856 16.9311 11.5534 17.8178 11.5534 18.7467C11.5534 20.52 11.9756 22.0823 12.82 23.4334C13.0734 23.8556 13.4111 24.2778 13.8334 24.7H13.2C12.8623 24.7 12.5245 24.7423 12.1867 24.8267C11.4267 24.2356 10.5823 23.94 9.65336 23.94L10.0334 23.3067C10.6245 22.3778 10.92 21.3434 10.92 20.2034C10.92 19.0634 10.54 18.1134 9.78003 17.3534C9.02003 16.5934 8.09114 16.2134 6.99336 16.2134C5.89558 16.2134 4.9667 16.5934 4.2067 17.3534C3.4467 18.1134 3.0667 19.0423 3.0667 20.14C3.0667 20.8156 3.19336 21.4911 3.4467 22.1667C3.70003 22.8423 4.03781 23.4334 4.46003 23.94C3.27781 23.94 2.28558 24.32 1.48336 25.08C0.68114 25.84 0.280029 26.7689 0.280029 27.8667V32.4267C0.280029 32.5956 0.322252 32.7434 0.406696 32.87C0.49114 32.9967 0.617807 33.06 0.786696 33.06H7.37336V36.86C7.37336 37.0289 7.4367 37.1556 7.56336 37.24C7.69003 37.3245 7.83781 37.3667 8.0067 37.3667H25.9934C26.1623 37.3667 26.31 37.3245 26.4367 37.24C26.5634 37.1556 26.6267 37.0289 26.6267 36.86V33.06H33.2134C33.3823 33.06 33.5089 32.9967 33.5934 32.87C33.6778 32.7434 33.72 32.5956 33.72 32.4267V27.8667C33.72 26.7689 33.3189 25.84 32.5167 25.08C31.7145 24.32 30.7223 23.94 29.54 23.94ZM24.22 20.14C24.22 19.38 24.4945 18.7256 25.0434 18.1767C25.5923 17.6278 26.2467 17.3534 27.0067 17.3534C27.7667 17.3534 28.4211 17.6278 28.97 18.1767C29.5189 18.7256 29.7934 19.4223 29.7934 20.2667C29.7934 21.1111 29.5823 21.8711 29.16 22.5467C28.6534 23.4756 27.9356 23.94 27.0067 23.94C26.0778 23.94 25.36 23.4756 24.8534 22.5467C24.4311 21.8711 24.22 21.0689 24.22 20.14ZM17 14.5667C18.1823 14.5667 19.1956 14.9678 20.04 15.77C20.8845 16.5723 21.3067 17.5645 21.3067 18.7467V18.8734C20.3778 18.7889 19.5756 18.62 18.9 18.3667C18.0556 18.0289 17.1689 17.5223 16.24 16.8467C16.0711 16.6778 15.86 16.6778 15.6067 16.8467L12.6934 18.4934C12.7778 17.3956 13.2423 16.4667 14.0867 15.7067C14.9311 14.9467 15.9023 14.5667 17 14.5667ZM13.8334 22.8C13.3267 21.9556 12.9889 20.9845 12.82 19.8867L15.86 17.9867C16.7889 18.6623 17.7178 19.1689 18.6467 19.5067C19.3223 19.76 20.1667 19.9711 21.18 20.14C21.0111 21.1534 20.6734 22.04 20.1667 22.8C19.4067 24.0667 18.3511 24.7 17 24.7C15.6489 24.7 14.5934 24.0667 13.8334 22.8ZM4.2067 20.14C4.2067 19.38 4.48114 18.7256 5.03003 18.1767C5.57892 17.6278 6.23336 17.3534 6.99336 17.3534C7.75336 17.3534 8.40781 17.6278 8.9567 18.1767C9.50558 18.7256 9.78003 19.4223 9.78003 20.2667C9.78003 21.1111 9.56892 21.8711 9.1467 22.5467C8.64003 23.4756 7.92225 23.94 6.99336 23.94C6.06447 23.94 5.3467 23.4756 4.84003 22.5467C4.41781 21.8711 4.2067 21.0689 4.2067 20.14ZM1.42003 31.92V27.8667C1.42003 27.1067 1.71558 26.4734 2.3067 25.9667C2.89781 25.46 3.61558 25.2067 4.46003 25.2067H9.65336C9.99114 25.2067 10.2867 25.2489 10.54 25.3334C9.61114 25.7556 8.85114 26.41 8.26003 27.2967C7.66892 28.1834 7.37336 29.1334 7.37336 30.1467V31.92H1.42003ZM25.4867 36.2267H22.4467V32.5534C22.4467 32.3845 22.3834 32.2367 22.2567 32.11C22.13 31.9834 21.9823 31.92 21.8134 31.92C21.6445 31.92 21.5178 31.9834 21.4334 32.11C21.3489 32.2367 21.3067 32.3845 21.3067 32.5534V36.2267H12.6934V32.5534C12.6934 32.3845 12.6511 32.2367 12.5667 32.11C12.4823 31.9834 12.3556 31.92 12.1867 31.92C12.0178 31.92 11.87 31.9834 11.7434 32.11C11.6167 32.2367 11.5534 32.3845 11.5534 32.5534V36.2267H8.51336V30.1467C8.51336 28.9645 8.97781 27.9511 9.9067 27.1067C10.8356 26.2623 11.9334 25.84 13.2 25.84H20.8C22.0667 25.84 23.1645 26.2623 24.0934 27.1067C25.0223 27.9511 25.4867 28.9645 25.4867 30.1467V36.2267ZM32.58 31.92H26.6267V30.1467C26.6267 29.1334 26.3311 28.1834 25.74 27.2967C25.1489 26.41 24.3889 25.7556 23.46 25.3334C23.7134 25.2489 24.0089 25.2067 24.3467 25.2067H29.54C30.3845 25.2067 31.1023 25.46 31.6934 25.9667C32.2845 26.4734 32.58 27.1067 32.58 27.8667V31.92ZM13.7067 7.7267L13.2 10.8934C13.2 11.1467 13.2845 11.3367 13.4534 11.4634C13.6223 11.59 13.8334 11.6111 14.0867 11.5267L17 10.0067L19.9134 11.5267C20.1667 11.6111 20.3778 11.59 20.5467 11.4634C20.7156 11.3367 20.8 11.1467 20.8 10.8934L20.2934 7.7267L22.5734 5.32003C22.7423 5.15115 22.7845 4.96115 22.7 4.75003C22.6156 4.53892 22.4467 4.39114 22.1934 4.3067L19.0267 3.80003L17.5067 0.8867C17.4223 0.717811 17.2534 0.633366 17 0.633366C16.7467 0.633366 16.5778 0.717811 16.4934 0.8867L14.9734 3.80003L11.8067 4.3067C11.5534 4.39114 11.3845 4.53892 11.3 4.75003C11.2156 4.96115 11.2578 5.15115 11.4267 5.32003L13.7067 7.7267ZM15.48 4.94003C15.6489 4.85559 15.7756 4.72892 15.86 4.56003L17 2.4067L18.14 4.56003C18.2245 4.72892 18.3511 4.85559 18.52 4.94003L20.9267 5.32003L19.28 7.09337C19.1111 7.17781 19.0267 7.3467 19.0267 7.60003L19.4067 9.88003L17.2534 8.8667C17.0845 8.78225 16.9156 8.78225 16.7467 8.8667L14.5934 9.88003L14.9734 7.60003C14.9734 7.3467 14.8889 7.17781 14.72 7.09337L13.0734 5.32003L15.48 4.94003ZM2.6867 8.61337L2.3067 10.8934C2.3067 11.1467 2.41225 11.3367 2.62336 11.4634C2.83447 11.59 3.02447 11.6111 3.19336 11.5267L5.22003 10.5134L7.2467 11.5267C7.41558 11.6111 7.60558 11.59 7.8167 11.4634C8.02781 11.3367 8.13336 11.1467 8.13336 10.8934L7.75336 8.61337L9.27336 7.09337C9.44225 6.92448 9.50558 6.71337 9.46336 6.46003C9.42114 6.2067 9.27336 6.08003 9.02003 6.08003L6.74003 5.70003L5.7267 3.67337C5.64225 3.50448 5.47336 3.42003 5.22003 3.42003C4.9667 3.42003 4.79781 3.50448 4.71336 3.67337L3.70003 5.70003L1.42003 6.08003C1.1667 6.08003 1.01892 6.2067 0.976696 6.46003C0.934474 6.71337 0.997807 6.92448 1.1667 7.09337L2.6867 8.61337ZM4.08003 6.84003C4.33336 6.75559 4.50225 6.62892 4.5867 6.46003L5.22003 5.19337L5.85336 6.46003C5.93781 6.62892 6.06447 6.75559 6.23336 6.84003L7.6267 7.09337L6.74003 8.1067C6.57114 8.19114 6.4867 8.31781 6.4867 8.4867L6.74003 9.88003L5.47336 9.37337C5.30447 9.28892 5.13558 9.28892 4.9667 9.37337L3.70003 9.88003L3.95336 8.4867C3.95336 8.31781 3.86892 8.19114 3.70003 8.1067L2.81336 7.09337L4.08003 6.84003ZM26.2467 8.61337L25.8667 10.8934C25.8667 11.1467 25.9723 11.3367 26.1834 11.4634C26.3945 11.59 26.5845 11.6111 26.7534 11.5267L28.78 10.5134L30.8067 11.5267C30.9756 11.6111 31.1656 11.59 31.3767 11.4634C31.5878 11.3367 31.6934 11.1467 31.6934 10.8934L31.3134 8.61337L32.8334 7.09337C33.0023 6.92448 33.0656 6.71337 33.0234 6.46003C32.9811 6.2067 32.8334 6.08003 32.58 6.08003L30.3 5.70003L29.2867 3.67337C29.2023 3.50448 29.0334 3.42003 28.78 3.42003C28.5267 3.42003 28.3578 3.50448 28.2734 3.67337L27.26 5.70003L24.98 6.08003C24.7267 6.08003 24.5789 6.2067 24.5367 6.46003C24.4945 6.71337 24.5578 6.92448 24.7267 7.09337L26.2467 8.61337ZM27.7667 6.84003C27.9356 6.75559 28.0623 6.62892 28.1467 6.46003L28.78 5.19337L29.4134 6.46003C29.4978 6.62892 29.6667 6.75559 29.92 6.84003L31.1867 7.09337L30.3 8.1067C30.1311 8.19114 30.0467 8.31781 30.0467 8.4867L30.3 9.88003L29.0334 9.37337C28.8645 9.28892 28.6956 9.28892 28.5267 9.37337L27.26 9.88003L27.5134 8.4867C27.5134 8.31781 27.4289 8.19114 27.26 8.1067L26.3734 7.09337L27.7667 6.84003Z" fill="#0E2A46"/>
</svg>
