<svg width="127" height="28" viewBox="0 0 127 28" fill="none" xmlns="http://www.w3.org/2000/svg">
<rect x="12.8329" width="29.1667" height="12.2727" rx="3" fill="#704FE6"/>
<rect y="14.7273" width="29.1667" height="12.2727" rx="3" fill="#704FE6"/>
<path d="M55.438 21.2575C54.4079 21.2575 53.4707 21.0787 52.6266 20.721C51.7967 20.349 51.1386 19.8125 50.6521 19.1114C50.1656 18.396 49.9152 17.5161 49.9009 16.4716H52.2832C52.2975 17.3301 52.5908 18.024 53.1631 18.5534C53.7354 19.0685 54.4937 19.326 55.438 19.326C56.2536 19.326 56.9189 19.1328 57.4339 18.7465C57.9633 18.3459 58.228 17.7951 58.228 17.094C58.228 16.6648 58.1565 16.3142 58.0134 16.0424C57.8703 15.7562 57.6343 15.5058 57.3052 15.2912C56.9904 15.0766 56.5683 14.8763 56.0389 14.6903C55.5096 14.49 54.8586 14.2611 54.0859 14.0035C53.2275 13.7031 52.5192 13.3668 51.9613 12.9948C51.4176 12.6085 51.0098 12.165 50.7379 11.6642C50.4661 11.1492 50.3302 10.5697 50.3302 9.92585C50.3302 9.01015 50.5448 8.24469 50.974 7.62946C51.4176 6.99992 52.0113 6.52777 52.7553 6.213C53.4993 5.88392 54.322 5.71938 55.2234 5.71938C56.1391 5.71938 56.9618 5.88392 57.6915 6.213C58.4355 6.52777 59.0293 7.00708 59.4728 7.65092C59.9306 8.28046 60.1667 9.05308 60.181 9.96877H57.7559C57.7559 9.31062 57.5126 8.75977 57.0262 8.31623C56.554 7.87269 55.9245 7.65092 55.1376 7.65092C54.4651 7.63661 53.8928 7.80831 53.4206 8.166C52.9485 8.52369 52.7124 9.04592 52.7124 9.73269C52.7124 10.2192 52.8483 10.6126 53.1202 10.9131C53.392 11.2135 53.7998 11.4782 54.3435 11.7072C54.8872 11.9361 55.5668 12.1936 56.3823 12.4798C56.9117 12.6515 57.4268 12.8518 57.9276 13.0807C58.4426 13.3096 58.9005 13.5958 59.3011 13.9392C59.7017 14.2682 60.0165 14.676 60.2454 15.1625C60.4886 15.6489 60.6102 16.2427 60.6102 16.9438C60.6102 17.8595 60.3742 18.6392 59.902 19.2831C59.4442 19.9126 58.8218 20.3991 58.0349 20.7425C57.2623 21.0858 56.3966 21.2575 55.438 21.2575ZM66.0008 21.2575C65.314 21.2575 64.6845 21.1359 64.1122 20.8927C63.5399 20.6352 63.082 20.2632 62.7386 19.7767C62.3952 19.2902 62.2236 18.7036 62.2236 18.0168C62.2236 17.2013 62.4239 16.5503 62.8245 16.0638C63.2394 15.5631 63.7902 15.1982 64.477 14.9693C65.1781 14.7261 65.9436 14.6045 66.7734 14.6045H69.4776C69.4776 13.9892 69.3774 13.4956 69.1771 13.1236C68.9768 12.7373 68.7049 12.4583 68.3616 12.2866C68.0182 12.1006 67.6176 12.0076 67.1597 12.0076C66.5588 12.0076 66.0294 12.1507 65.5716 12.4368C65.128 12.7087 64.849 13.1451 64.7346 13.746H62.4382C62.5097 12.9734 62.7672 12.3152 63.2108 11.7715C63.6686 11.2278 64.2481 10.8129 64.9492 10.5268C65.6502 10.2406 66.3942 10.0975 67.1812 10.0975C68.2113 10.0975 69.0626 10.2907 69.7351 10.677C70.4219 11.049 70.9298 11.5712 71.2589 12.2437C71.6022 12.9162 71.7739 13.6816 71.7739 14.5401V17.8022C71.7882 18.2172 71.8741 18.5248 72.0315 18.7251C72.2032 18.9111 72.5036 19.0184 72.9329 19.047V21C72.3606 21 71.8598 20.9356 71.4306 20.8068C71.0156 20.6781 70.6722 20.4849 70.4004 20.2274C70.1286 19.9555 69.9139 19.6122 69.7566 19.1972C69.4132 19.7695 68.9124 20.256 68.2542 20.6566C67.5961 21.0572 66.8449 21.2575 66.0008 21.2575ZM66.5373 19.3904C67.1239 19.3904 67.639 19.2473 68.0826 18.9612C68.5261 18.6607 68.8695 18.2744 69.1127 17.8022C69.3559 17.3158 69.4776 16.7935 69.4776 16.2355V16.1926H66.9451C66.5302 16.1926 66.1367 16.2427 65.7647 16.3428C65.407 16.443 65.1137 16.6147 64.8848 16.8579C64.6702 17.0868 64.5629 17.4088 64.5629 17.8237C64.5629 18.3674 64.756 18.768 65.1423 19.0255C65.5286 19.2688 65.9936 19.3904 66.5373 19.3904ZM74.6815 21V10.3551H76.8706L76.9349 11.7286C77.2783 11.1992 77.729 10.7986 78.287 10.5268C78.8593 10.2406 79.4817 10.0975 80.1542 10.0975C80.9697 10.0975 81.6994 10.2692 82.3432 10.6126C83.0014 10.9417 83.5093 11.4639 83.867 12.1793C84.239 11.5212 84.7469 11.0132 85.3908 10.6555C86.0346 10.2835 86.7357 10.0975 87.494 10.0975C88.3239 10.0975 89.0607 10.2692 89.7046 10.6126C90.3484 10.9417 90.8492 11.4496 91.2069 12.1364C91.5789 12.8232 91.7649 13.6888 91.7649 14.7332V21H89.5114V15.0337C89.5114 14.0751 89.3039 13.3382 88.889 12.8232C88.4741 12.3081 87.8589 12.0505 87.0433 12.0505C86.2278 12.0505 85.5768 12.3367 85.0903 12.909C84.6039 13.4813 84.3606 14.2754 84.3606 15.2912V21H82.1072V15.0337C82.1072 14.0751 81.8926 13.3382 81.4633 12.8232C81.0341 12.3081 80.426 12.0505 79.6391 12.0505C78.8951 12.0505 78.2584 12.3224 77.729 12.8661C77.2139 13.3955 76.9564 14.2038 76.9564 15.2912V21H74.6815ZM94.7639 25.7215L97.1247 20.5278L92.6822 10.3551H95.1932L98.3266 18.1242L101.589 10.3551H103.971L97.1676 25.7215H94.7639ZM108.065 21.2575C107.378 21.2575 106.748 21.1359 106.176 20.8927C105.604 20.6352 105.146 20.2632 104.802 19.7767C104.459 19.2902 104.287 18.7036 104.287 18.0168C104.287 17.2013 104.488 16.5503 104.888 16.0638C105.303 15.5631 105.854 15.1982 106.541 14.9693C107.242 14.7261 108.007 14.6045 108.837 14.6045H111.541C111.541 13.9892 111.441 13.4956 111.241 13.1236C111.041 12.7373 110.769 12.4583 110.425 12.2866C110.082 12.1006 109.681 12.0076 109.223 12.0076C108.623 12.0076 108.093 12.1507 107.635 12.4368C107.192 12.7087 106.913 13.1451 106.798 13.746H104.502C104.573 12.9734 104.831 12.3152 105.275 11.7715C105.732 11.2278 106.312 10.8129 107.013 10.5268C107.714 10.2406 108.458 10.0975 109.245 10.0975C110.275 10.0975 111.126 10.2907 111.799 10.677C112.486 11.049 112.994 11.5712 113.323 12.2437C113.666 12.9162 113.838 13.6816 113.838 14.5401V17.8022C113.852 18.2172 113.938 18.5248 114.095 18.7251C114.267 18.9111 114.567 19.0184 114.997 19.047V21C114.424 21 113.924 20.9356 113.494 20.8068C113.079 20.6781 112.736 20.4849 112.464 20.2274C112.192 19.9555 111.978 19.6122 111.82 19.1972C111.477 19.7695 110.976 20.256 110.318 20.6566C109.66 21.0572 108.909 21.2575 108.065 21.2575ZM108.601 19.3904C109.188 19.3904 109.703 19.2473 110.146 18.9612C110.59 18.6607 110.933 18.2744 111.176 17.8022C111.42 17.3158 111.541 16.7935 111.541 16.2355V16.1926H109.009C108.594 16.1926 108.2 16.2427 107.828 16.3428C107.471 16.443 107.177 16.6147 106.949 16.8579C106.734 17.0868 106.627 17.4088 106.627 17.8237C106.627 18.3674 106.82 18.768 107.206 19.0255C107.592 19.2688 108.057 19.3904 108.601 19.3904ZM116.745 21V5.97692H119.02V14.8405L122.969 10.3551H125.845L121.145 15.42L126.188 21H123.27L119.02 15.978V21H116.745Z" fill="#202020"/>
</svg>
