<svg width="15" height="17" viewBox="0 0 15 17" fill="none" xmlns="http://www.w3.org/2000/svg">
<path d="M11.5236 10.1946C12.3553 10.1946 13.0623 10.4857 13.6445 11.0679C14.2267 11.6501 14.5178 12.3571 14.5178 13.1888C14.5178 14.0205 14.2267 14.7275 13.6445 15.3097C13.0623 15.8919 12.3553 16.183 11.5236 16.183C10.6919 16.183 9.98488 15.8919 9.40267 15.3097C8.82046 14.7275 8.52936 14.0205 8.52936 13.1888C8.52936 12.9601 8.55015 12.7418 8.59174 12.5338L5.41038 10.5377C4.86976 10.9743 4.24596 11.1927 3.53899 11.1927C2.70726 11.1927 2.0003 10.9016 1.41809 10.3194C0.835876 9.73714 0.544771 9.03018 0.544771 8.19845C0.544771 7.36672 0.835876 6.65975 1.41809 6.07754C2.0003 5.49533 2.70726 5.20423 3.53899 5.20423C4.24596 5.20423 4.86976 5.42256 5.41038 5.85921L8.59174 3.86307C8.55015 3.65513 8.52936 3.4368 8.52936 3.20808C8.52936 2.37635 8.82046 1.66938 9.40267 1.08717C9.98488 0.504964 10.6919 0.213859 11.5236 0.213859C12.3553 0.213859 13.0623 0.504964 13.6445 1.08717C14.2267 1.66938 14.5178 2.37635 14.5178 3.20808C14.5178 4.03981 14.2267 4.74678 13.6445 5.32899C13.0623 5.9112 12.3553 6.2023 11.5236 6.2023C10.8166 6.2023 10.1928 5.98397 9.65219 5.54731L6.47083 7.54346C6.51242 7.75139 6.53321 7.96972 6.53321 8.19845C6.53321 8.42717 6.51242 8.6455 6.47083 8.85343L9.65219 10.8496C10.1928 10.4129 10.8166 10.1946 11.5236 10.1946Z" fill="#0E2A46"/>
</svg>
